{"title":"Hot.Pursuit.1987.iNTERNAL.DVDRip.XviD-EXViDiNT","uid":6998267,"size":746016637,"categoryP":"video","categoryS":"movies","magnet":"?xt=urn:btih:81376ecb75a4df2996a2ce0d63bc8617fe7035f3&amp;dn=Hot.Pursuit.1987.iNTERNAL.DVDRip.XviD-EXViDiNT&amp;tr=udp%3A%2F%2Ftracker.openbittorrent.com%3A80&amp;tr=udp%3A%2F%2Fopen.demonii.com%3A1337&amp;tr=udp%3A%2F%2Ftracker.coppersurfer.tk%3A6969&amp;tr=udp%3A%2F%2Fexodus.desync.com%3A6969","seeders":1,"leechers":2,"uploader":"TvTeam","files":6,"time":1327964949,"description":". \n &lt;a href=&quot;\nhttp://www.torrenting.com&quot; rel=&quot;nofollow&quot; target=&quot;_NEW&quot;&gt;\nhttp://www.torrenting.com&lt;/a&gt;          :     Once &amp; For all ;)\n\n\n               www . Torrenting . Com \n\n(((((((((((((= Enjoy No RAR releases =))))))))))))))))))))\n\n\n...................................NFO:....................................\n\n.                                                                                                     \n       \n     \n     \n       \n       \n     \n     \n                                         \n                                         \n                EXVID                    \n                                         \n         \n                                         \n         Filled the Archives             \n                                         \n         \n                                         \n                With:                    \n                                         \n         \n                                         \n                                    \n     E240                           \n                                    \n     SP               (C) 2009      \n                                         \n     \n     \n     \n                                                                                  \n                                                                                   \n                Hot.Pursuit.1987.iNTERNAL.DVDRip.XviD-EXViDiNT                      \n                                                                                   \n                                                                                  \n     \n                                                                                               \nEXViD aims to iNTERNAL those releases which have been lost in the archives.\nEXViD aims to PRE non-internal releases which have poor sources and are likely skipped by others. &lt;a href=&quot;\nhttp://www.imdb.com/title/tt0093215/&quot; rel=&quot;nofollow&quot; target=&quot;_NEW&quot;&gt;\nhttp://www.imdb.com/title/tt0093215/&lt;/a&gt;\nSubtitles: EN\nDate: 2012.01\n\nDirector: Steven Lisberger\n\nGenres: Comedy\n\nPlot:\nYoung Danny is following his rich girlfriend's family to the Caribbean. But suddenly he simply\nmust make a chemistry test and cannot go with them. After they have left, he gets a leave from\nhis professor and takes a plane to find them. But he is not quite sure where they are, and meets\nsmugglers, crazy captains and murderers.\n\nCast:\nJohn Cusack\t...\tDan Bartlett\nRobert Loggia\t...\t'Mac' MacClaren\nJerry Stiller\t...\tVictor Honeywell\nWendy Gazelle\t...\tLori Cronenberg\nMonte Markham\t...\tBill Cronenberg\nShelley Fabares\t...\tBuffy Cronenberg\nBen Stiller\t...\tChris Honeywell\nDah-ve Chodan\t...\tGinger Cronenberg\nKeith David\t...\tAlphonso\nPaul Bates\t...\tCleon\nUrsaline Bryant\t...\tRoxanne\nTerence Cooper\t...\tCaptain Andrew (as Terrence Cooper)\nMiguel ngel Fuentes\t...\tPoliceman #1 (as Miguel Angel Fuentes)\nCarlos Horcasitas\t...\tPoliceman #2\nMartin LaSalle\t...\tPrisoner (as Martin Lasalle)\n\nStats:\nFormat                                   : AVI\nFormat/Info                              : Audio Video Interleave\nFile size                                : 702 MiB\nDuration                                 : 1h 32mn\nOverall bit rate mode                    : Variable\nOverall bit rate                         : 1 061 Kbps\n\nVideo\nID                                       : 0\nFormat                                   : MPEG-4 Visual\nFormat profile                           : Advanced Simple@L5\nFormat settings, BVOP                    : 2\nFormat settings, QPel                    : No\nFormat settings, GMC                     : No warppoints\nFormat settings, Matrix                  : Default (H.263)\nCodec ID                                 : XVID\nCodec ID/Hint                            : XviD\nDuration                                 : 1h 32mn\nBit rate                                 : 919 Kbps\nWidth                                    : 608 pixels\nHeight                                   : 336 pixels\nDisplay aspect ratio                     : 16:9\nFrame rate                               : 23.976 fps\nColor space                              : YUV\nChroma subsampling                       : 4:2:0\nBit depth                                : 8 bits\nScan type                                : Progressive\nCompression mode                         : Lossy\nBits/(Pixel*Frame)                       : 0.188\nStream size                              : 608 MiB (87%)\nWriting library                          : XviD 64\n\nAudio\nID                                       : 1\nFormat                                   : MPEG Audio\nFormat version                           : Version 1\nFormat profile                           : Layer 3\nMode                                     : Joint stereo\nMode extension                           : MS Stereo\nCodec ID                                 : 55\nCodec ID/Hint                            : MP3\nDuration                                 : 1h 32mn\nBit rate mode                            : Variable\nBit rate                                 : 128 Kbps\nChannel(s)                               : 2 channels\nSampling rate                            : 48.0 KHz\nCompression mode                         : Lossy\nStream size                              : 85.7 MiB (12%)\nAlignment                                : Aligned on interleaves\nInterleave, duration                     : 24 ms (0.58 video frame)\nInterleave, preload duration             : 124 ms\nWriting library                          : LAME3.98.4\n\n\n\nRelease notes:\nEnjoy!\n\nLooking for:\n75TB+ Archives\nDUTCH/FLEMiSH Archives\n                                                                                                    \nGreets: CRBS EPiSODE FiCO FLS iLS KLASSiGER LiPSYNC MADE NODLABS RUNNER SPRiNTER      \n   \n\n                                                                    ASCII DONE BY XX^NFO 2oo9     \n \n\nRLS-Crc: 415243414445:42EECD90\t  \t \t\t\nRLS-Crc: 415243414445:42EECD90","torrent":{"xt":"urn:btih:81376ecb75a4df2996a2ce0d63bc8617fe7035f3","amp;dn":"Hot.Pursuit.1987.iNTERNAL.DVDRip.XviD-EXViDiNT","amp;tr":["udp%3A%2F%2Ftracker.openbittorrent.com%3A80","udp%3A%2F%2Fopen.demonii.com%3A1337","udp%3A%2F%2Ftracker.coppersurfer.tk%3A6969","udp%3A%2F%2Fexodus.desync.com%3A6969"],"infoHash":"81376ecb75a4df2996a2ce0d63bc8617fe7035f3","infoHashBuffer":{"type":"Buffer","data":[129,55,110,203,117,164,223,41,150,162,206,13,99,188,134,23,254,112,53,243]},"announce":[],"urlList":[]}}